<?xml version="1.0" standalone="no"?>
        <!DOCTYPE svg PUBLIC "-//W3C//DTD SVG 1.1//EN" 
        "http://www.w3.org/Graphics/SVG/1.1/DTD/svg11.dtd"> <svg xmlns="http://www.w3.org/2000/svg" width="25" height="25" fill="currentColor" class="bi bi-file-plus" viewBox="0 0 16 16" id="IconChangeColor"> <path d="M8.5 6a.5.5 0 0 0-1 0v1.5H6a.5.5 0 0 0 0 1h1.5V10a.5.5 0 0 0 1 0V8.5H10a.5.5 0 0 0 0-1H8.5V6z" id="mainIconPathAttribute"></path> <path d="M2 2a2 2 0 0 1 2-2h8a2 2 0 0 1 2 2v12a2 2 0 0 1-2 2H4a2 2 0 0 1-2-2V2zm10-1H4a1 1 0 0 0-1 1v12a1 1 0 0 0 1 1h8a1 1 0 0 0 1-1V2a1 1 0 0 0-1-1z" id="mainIconPathAttribute"></path> </svg> 